#!OML:ASF H:\Punching\Project 1\Capture day 1\Session 1\female.ASF
:FULLY-SPECIFIED
:DEGREES
1494
root -3.61057 13.7565 10.8737 35.2459 23.4631 4.19868
lowerback 13.254 1.41967 -2.85694
upperback -1.71521 1.27947 -1.58207
thorax -9.33737 0.718198 -0.354206
lowerneck -18.188 -2.79323 3.03516
upperneck 5.14505 -4.30487 -1.04312
head 4.35401 -2.11857 -1.18354
rclavicle 3.65764e-014 -1.59028e-015
rhumerus 13.8768 -4.92344 -87.3351
rradius 14.4512
rwrist 44.3091
rhand -30.3373 10.4623
rfingers 7.12502
rthumb -3.6432 -19.4863
lclavicle 3.65764e-014 -1.59028e-015
lhumerus 0.546589 -65.2113 86.0048
lradius 129.589
lwrist -0.479686
lhand -26.4706 6.61287
lfingers 7.12502
lthumb 0.0912264 36.5926
rfemur -80.7735 -16.6763 26.2756
rtibia 76.3883
rfoot -24.6228 -12.5222
rtoes -2.86257
lfemur -18.1626 -4.75567 13.2272
ltibia 2.8625e-014
lfoot -16.8158 9.75223
ltoes -14.746
1495
root -3.63597 13.7305 10.8923 35.5435 23.4964 4.36665
lowerback 13.3181 1.33222 -2.93754
upperback -1.7518 1.15444 -1.48653
thorax -9.41611 0.665882 -0.182011
lowerneck -18.0687 -2.69484 2.968
upperneck 4.84502 -4.14365 -1.13366
head 4.24485 -2.04997 -1.18149
rclavicle -1.63003e-014 2.10712e-014
rhumerus 13.4636 -0.0985144 -85.5477
rradius 15.3137
rwrist 39.7518
rhand -30.1144 10.12
rfingers 7.12502
rthumb -3.42789 -19.8322
lclavicle -1.63003e-014 2.10712e-014
lhumerus 0.391252 -65.1763 86.3839
lradius 129.675
lwrist -0.684426
lhand -26.4021 6.40997
lfingers 7.12502
lthumb 0.157404 36.3897
rfemur -81.2431 -16.5988 26.2721
rtibia 76.8498
rfoot -24.8493 -12.7248
rtoes -2.81762
lfemur -18.3623 -4.6654 13.2805
ltibia 6.36111e-015
lfoot -16.9241 9.61542
ltoes -14.5146
1496
root -3.65638 13.7077 10.9114 35.7981 23.5404 4.5214
lowerback 13.3682 1.22236 -2.98305
upperback -1.78138 1.0068 -1.38405
thorax -9.47705 0.601128 -0.0163342
lowerneck -17.9424 -2.5724 2.93727
upperneck 4.58735 -3.9532 -1.29292
head 4.14661 -1.96966 -1.20491
rclavicle 7.35503e-015 -6.99722e-014
rhumerus 13.2644 3.77903 -84.2134
rradius 16.0375
rwrist 36.5375
rhand -30.0969 9.73891
rfingers 7.12502
rthumb -3.41101 -20.2136
lclavicle 7.35503e-015 -6.99722e-014
lhumerus 0.0811032 -65.0889 86.8678
lradius 129.777
lwrist -0.900392
lhand -26.3567 6.24479
lfingers 7.12502
lthumb 0.201236 36.2244
rfemur -81.6293 -16.5726 26.28
rtibia 77.2561
rfoot -25.0826 -12.8945
rtoes -2.80504
lfemur -18.5195 -4.60706 13.3256
ltibia 2.22639e-014
lfoot -17.0357 9.47401
ltoes -14.2939
1497
root -3.6721 13.6875 10.9313 36.0072 23.5769 4.66166
lowerback 13.4008 1.10295 -2.99205
upperback -1.80192 0.852644 -1.29151
thorax -9.51614 0.53093 0.12035
lowerneck -17.8177 -2.4356 2.95486
upperneck 4.37833 -3.75018 -1.51243
head 4.06246 -1.88498 -1.25463
rclavicle 2.66371e-014 -3.97569e-015
rhumerus 13.2096 6.55857 -83.3357
rradius 16.5639
rwrist 34.7443
rhand -30.2744 9.36253
rfingers 7.12502
rthumb -3.58249 -20.5871
lclavicle 2.66371e-014 -3.97569e-015
lhumerus -0.312203 -64.9819 87.3838
lradius 129.889
lwrist -1.05887
lhand -26.3487 6.12111
lfingers 7.12502
lthumb 0.208934 36.1007
rfemur -81.9277 -16.5774 26.2897
rtibia 77.6046
rfoot -25.332 -13.0354
rtoes -2.76103
lfemur -18.6202 -4.569 13.3535
ltibia 1.27222e-014
lfoot -17.155 9.32721
ltoes -14.0762
1498
root -3.68384 13.6698 10.9513 36.1767 23.6088 4.79272
lowerback 13.4178 0.978388 -2.95675
upperback -1.81446 0.697949 -1.22127
thorax -9.53581 0.457269 0.208789
lowerneck -17.7023 -2.29475 3.01511
upperneck 4.21728 -3.5496 -1.76389
head 3.99395 -1.80177 -1.32226
rclavicle -7.21588e-014 2.38542e-015
rhumerus 13.2377 8.16122 -82.9147
rradius 16.9129
rwrist 34.4243
rhand -30.4375 9.00178
rfingers 7.12502
rthumb -3.73992 -20.9451
lclavicle -7.21588e-014 2.38542e-015
lhumerus -0.702043 -64.8766 87.8501
lradius 130.002
lwrist -1.10268
lhand -26.3604 6.06438
lfingers 7.12502
lthumb 0.197619 36.044
rfemur -82.1476 -16.6106 26.3009
rtibia 77.8969
rfoot -25.597 -13.1594
rtoes -2.69217
lfemur -18.6762 -4.55255 13.3641
ltibia -1.90833e-014
lfoot -17.2894 9.17395
ltoes -13.7969
1499
root -3.69253 13.6545 10.9705 36.3092 23.6138 4.9167
lowerback 13.4377 0.861928 -2.88526
upperback -1.82438 0.556696 -1.18829
thorax -9.55355 0.386942 0.233924
lowerneck -17.6085 -2.15979 3.11482
upperneck 4.11136 -3.36643 -2.01895
head 3.94543 -1.72585 -1.3999
rclavicle -4.19436e-014 5.76476e-014
rhumerus 13.2932 8.73599 -82.898
rradius 17.1307
rwrist 35.2367
rhand -30.5081 8.72915
rfingers 7.12502
rthumb -3.80815 -21.2166
lclavicle -4.19436e-014 5.76476e-014
lhumerus -1.10203 -64.8326 88.2756
lradius 130.103
lwrist -1.05024
lhand -26.4659 6.07916
lfingers 7.12502
lthumb 0.0957361 36.0589
rfemur -82.3014 -16.6425 26.292
rtibia 78.1363
rfoot -25.8641 -13.2664
rtoes -2.56444
lfemur -18.6841 -4.54134 13.3437
ltibia 1.90833e-014
lfoot -17.433 9.0167
ltoes -13.4419
1500
root -3.69893 13.6414 10.9878 36.414 23.5743 5.03935
lowerback 13.4694 0.76368 -2.79669
upperback -1.84022 0.437713 -1.20208
thorax -9.5849 0.325081 0.194116
lowerneck -17.5275 -2.03847 3.24185
upperneck 4.05374 -3.21068 -2.24298
head 3.91387 -1.66051 -1.47536
rclavicle -4.57205e-014 -3.81667e-014
rhumerus 13.3392 8.5877 -83.1933
rradius 17.2856
rwrist 36.7379
rhand -30.4556 8.50301
rfingers 7.12502
rthumb -3.75747 -21.4436
lclavicle -4.57205e-014 -3.81667e-014
lhumerus -1.43217 -64.8294 88.5907
lradius 130.185
lwrist -0.84167
lhand -26.5846 6.14854
lfingers 7.12502
lthumb -0.0189061 36.1283
rfemur -82.4085 -16.6523 26.2477
rtibia 78.3314
rfoot -26.1107 -13.3673
rtoes -2.42877
lfemur -18.6495 -4.52149 13.2789
ltibia -2.54444e-014
lfoot -17.5739 8.86248
ltoes -13.0533
1501
root -3.70354 13.6306 11.0029 36.4944 23.4798 5.16253
lowerback 13.5153 0.691046 -2.71009
upperback -1.86302 0.34781 -1.25976
thorax -9.6331 0.276062 0.10172
lowerneck -17.4618 -1.93618 3.37662
upperneck 4.03699 -3.08671 -2.41655
head 3.89758 -1.60731 -1.53971
rclavicle -5.52621e-014 1.59028e-015
rhumerus 13.3757 8.0374 -83.6903
rradius 17.4246
rwrist 38.4228
rhand -30.2506 8.34234
rfingers 7.12502
rthumb -3.55946 -21.6077
lclavicle -5.52621e-014 1.59028e-015
lhumerus -1.6819 -64.8703 88.8019
lradius 130.238
lwrist -0.511443
lhand -26.7072 6.26008
lfingers 7.12502
lthumb -0.137326 36.2398
rfemur -82.48 -16.6269 26.1548
rtibia 78.4908
rfoot -26.3221 -13.4574
rtoes -2.29905
lfemur -18.5728 -4.48502 13.1624
ltibia 6.36111e-015
lfoot -17.7063 8.71699
ltoes -12.6573
1502
root -3.70639 13.6219 11.0156 36.5521 23.3282 5.28068
lowerback 13.5701 0.646766 -2.63365
upperback -1.89259 0.290157 -1.35357
thorax -9.69503 0.242004 -0.030984
lowerneck -17.3998 -1.85491 3.50818
upperneck 4.04263 -2.99513 -2.53076
head 3.88904 -1.56636 -1.58805
rclavicle -2.18663e-015 1.07344e-014
rhumerus 13.4111 7.44147 -84.2736
rradius 17.5546
rwrist 39.7152
rhand -30.0047 8.27783
rfingers 7.12502
rthumb -3.32199 -21.676
lclavicle -2.18663e-015 1.07344e-014
lhumerus -1.84123 -64.9363 88.9124
lradius 130.259
lwrist -0.108863
lhand -26.8073 6.38727
lfingers 7.12502
lthumb -0.233945 36.3669
rfemur -82.528 -16.5608 26.0167
rtibia 78.624
rfoot -26.4816 -13.5376
rtoes -2.22146
lfemur -18.4574 -4.42481 12.9977
ltibia 1.59028e-014
lfoot -17.824 8.58602
ltoes -12.2918
1503
root -3.70755 13.6153 11.026 36.5915 23.1149 5.38969
lowerback 13.6195 0.633959 -2.58375
upperback -1.92489 0.267861 -1.47129
thorax -9.75804 0.225519 -0.182185
lowerneck -17.3403 -1.79437 3.62398
upperneck 4.05509 -2.93231 -2.59146
head 3.88325 -1.53659 -1.61968
rclavicle 4.33351e-014 -2.54444e-014
rhumerus 13.4647 6.98231 -84.8718
rradius 17.6664
rwrist 40.3495
rhand -29.7615 8.30371
rfingers 7.12502
rthumb -3.08709 -21.6537
lclavicle 4.33351e-014 -2.54444e-014
lhumerus -1.89554 -65.0108 88.93
lradius 130.243
lwrist 0.291371
lhand -26.8605 6.50585
lfingers 7.12502
lthumb -0.285367 36.4854
rfemur -82.5638 -16.4442 25.8302
rtibia 78.7357
rfoot -26.5807 -13.6015
rtoes -2.18563
lfemur -18.3065 -4.33191 12.7864
ltibia 0
lfoot -17.9225 8.47524
ltoes -11.9959
1504
root -3.70689 13.6107 11.034 36.6179 22.8483 5.48733
lowerback 13.6499 0.648615 -2.56855
upperback -1.95522 0.276241 -1.59721
thorax -9.80873 0.225207 -0.329238
lowerneck -17.2864 -1.75047 3.71494
upperneck 4.06181 -2.88987 -2.612
head 3.87685 -1.51495 -1.63651
rclavicle -3.3197e-014 9.93923e-015
rhumerus 13.5588 6.74538 -85.4353
rradius 17.7526
rwrist 40.2717
rhand -29.5258 8.38463
rfingers 7.12502
rthumb -2.85946 -21.5759
lclavicle -3.3197e-014 9.93923e-015
lhumerus -1.83199 -65.0601 88.8573
lradius 130.192
lwrist 0.613869
lhand -26.8406 6.59867
lfingers 7.12502
lthumb -0.266155 36.5782
rfemur -82.5958 -16.2832 25.6041
rtibia 78.8278
rfoot -26.6176 -13.6457
rtoes -2.19661
lfemur -18.1312 -4.20659 12.5368
ltibia 3.81667e-014
lfoot -18.0025 8.38428
ltoes -11.775
